<svg xmlns="http://www.w3.org/2000/svg" width="749.82568359375" height="215.33131408691406" viewBox="-243.3863525390625 -6.057949066162109 749.82568359375 215.33131408691406"><title>Neo4j Graph Visualization</title><desc>Created using Neo4j (http://www.neo4j.com/)</desc><g class="layer relationships"><g class="relationship" transform="translate(-214.38635235225524 38.282771945024535) rotate(379.29586043773065)"><path class="outline" fill="#A5ABB6" stroke="none" d="M 25 0.5 L 49.84992483455444 0.5 L 49.84992483455444 -0.5 L 25 -0.5 Z M 99.85383108455444 0.5 L 124.70375591910889 0.5 L 124.70375591910889 3.5 L 131.7037559191089 0 L 124.70375591910889 -3.5 L 124.70375591910889 -0.5 L 99.85383108455444 -0.5 Z"/><text text-anchor="middle" pointer-events="none" font-size="8px" fill="#000000" x="74.85187795955444" y="3" font-family="sans-serif">IDENTIFIES</text></g><g class="relationship" transform="translate(-66.48545680421614 90.0649331131689) rotate(343.46398085497356)"><path class="outline" fill="#A5ABB6" stroke="none" d="M 25 0.5 L 48.81272485212604 0.5 L 48.81272485212604 -0.5 L 25 -0.5 Z M 97.49631860212604 0.5 L 121.30904345425208 0.5 L 121.30904345425208 3.5 L 128.30904345425208 0 L 121.30904345425208 -3.5 L 121.30904345425208 -0.5 L 97.49631860212604 -0.5 Z"/><text text-anchor="middle" pointer-events="none" font-size="8px" fill="#000000" x="73.15452172712604" y="3" font-family="sans-serif">HAS_ROLE</text></g><g class="relationship" transform="translate(80.4828776779178 46.43041163756024) rotate(375.18897612109816)"><path class="outline" fill="#A5ABB6" stroke="none" d="M 25 0.5 L 47.71744577959984 0.5 L 47.71744577959984 -0.5 L 25 -0.5 Z M 124.84635202959984 0.5 L 147.56379780919968 0.5 L 147.56379780919968 3.5 L 154.56379780919968 0 L 147.56379780919968 -3.5 L 147.56379780919968 -0.5 L 124.84635202959984 -0.5 Z"/><text text-anchor="middle" pointer-events="none" font-size="8px" fill="#000000" x="86.28189890459984" y="3" font-family="sans-serif">HAS_PERMISSION</text></g><g class="relationship" transform="translate(253.77395943825093 93.47675544870758) rotate(393.19131293265616)"><path class="outline" fill="#A5ABB6" stroke="none" d="M 25 0.5 L 37.660287158577006 0.5 L 37.660287158577006 -0.5 L 25 -0.5 Z M 113.890755908577 0.5 L 126.55104306715401 0.5 L 126.55104306715401 3.5 L 133.551043067154 0 L 126.55104306715401 -3.5 L 126.55104306715401 -0.5 L 113.890755908577 -0.5 Z"/><text text-anchor="middle" pointer-events="none" font-size="8px" fill="#000000" x="75.775521533577" y="3" font-family="sans-serif">PERMITS_ACTION</text></g><g class="relationship" transform="translate(253.77395943825093 93.47675544870758) rotate(342.49690272439375)"><path class="outline" fill="#A5ABB6" stroke="none" d="M 25 0.5 L 50.08407679347032 0.5 L 50.08407679347032 -0.5 L 25 -0.5 Z M 177.43954554347033 0.5 L 202.52362233694063 0.5 L 202.52362233694063 3.5 L 209.52362233694063 0 L 202.52362233694063 -3.5 L 202.52362233694063 -0.5 L 177.43954554347033 -0.5 Z"/><text text-anchor="middle" pointer-events="none" font-size="8px" fill="#000000" x="113.76181116847032" y="3" font-family="sans-serif">PERMISSION_FOR_RESOURCE</text></g></g><g class="layer nodes"><g class="node" transform="translate(-214.38635235225524,38.282771945024535)"><circle class="outline" cx="0" cy="0" r="25" fill="#57C7E3" stroke="#23b3d7" stroke-width="2px"/><text text-anchor="middle" pointer-events="none" font-family="sans-serif" dy="1.5625" font-size="25" fill="#FFFFFF"/><text text-anchor="middle" pointer-events="none" y="5" font-size="10px" fill="#FFFFFF" font-family="sans-serif"> Identity</text></g><g class="node" transform="translate(-66.48545680421614,90.0649331131689)"><circle class="outline" cx="0" cy="0" r="25" fill="#F16667" stroke="#eb2728" stroke-width="2px"/><text text-anchor="middle" pointer-events="none" font-family="sans-serif" dy="1.5625" font-size="25" fill="#FFFFFF"/><text text-anchor="middle" pointer-events="none" y="5" font-size="10px" fill="#FFFFFF" font-family="sans-serif"> User</text></g><g class="node" transform="translate(80.4828776779178,46.43041163756024)"><circle class="outline" cx="0" cy="0" r="25" fill="#D9C8AE" stroke="#c0a378" stroke-width="2px"/><text text-anchor="middle" pointer-events="none" font-family="sans-serif" dy="1.5625" font-size="25" fill="#604A0E"/><text text-anchor="middle" pointer-events="none" y="5" font-size="10px" fill="#604A0E" font-family="sans-serif"> Role</text></g><g class="node" transform="translate(253.77395943825093,93.47675544870758)"><circle class="outline" cx="0" cy="0" r="25" fill="#8DCC93" stroke="#5db665" stroke-width="2px"/><text text-anchor="middle" pointer-events="none" font-family="sans-serif" dy="1.5625" font-size="25" fill="#604A0E"/><text text-anchor="middle" pointer-events="none" y="5" font-size="10px" fill="#604A0E" font-family="sans-serif"> Permissi…</text></g><g class="node" transform="translate(477.4393007978065,22.94205116384191)"><circle class="outline" cx="0" cy="0" r="25" fill="#ECB5C9" stroke="#da7298" stroke-width="2px"/><text text-anchor="middle" pointer-events="none" font-family="sans-serif" dy="1.5625" font-size="25" fill="#604A0E"/><text text-anchor="middle" pointer-events="none" y="5" font-size="10px" fill="#604A0E" font-family="sans-serif"> Resource</text></g><g class="node" transform="translate(386.4569755847758,180.27335955246005)"><circle class="outline" cx="0" cy="0" r="25" fill="#F79767" stroke="#f36924" stroke-width="2px"/><text text-anchor="middle" pointer-events="none" font-family="sans-serif" dy="1.5625" font-size="25" fill="#FFFFFF"/><text text-anchor="middle" pointer-events="none" y="5" font-size="10px" fill="#FFFFFF" font-family="sans-serif"> Action</text></g></g></svg>